<svg width="20" height="20" viewBox="0 0 20 20" fill="none" xmlns="http://www.w3.org/2000/svg">
<path fill-rule="evenodd" clip-rule="evenodd" d="M10 15.4547C12.1217 15.4547 14.1566 14.7364 15.6569 13.4577C17.1571 12.1791 18 10.4448 18 8.63654C18 6.82825 17.1571 5.09402 15.6569 3.81536C14.1566 2.5367 12.1217 1.81836 10 1.81836C7.87827 1.81836 5.84344 2.5367 4.34315 3.81536C2.84285 5.09402 2 6.82825 2 8.63654C2 10.4448 2.84285 12.1791 4.34315 13.4577C5.84344 14.7364 7.87827 15.4547 10 15.4547ZM11 5.22745C11 5.00141 10.8946 4.78463 10.7071 4.6248C10.5196 4.46497 10.2652 4.37518 10 4.37518C9.73478 4.37518 9.48043 4.46497 9.29289 4.6248C9.10536 4.78463 9 5.00141 9 5.22745V8.63654C9.00006 8.86256 9.10545 9.0793 9.293 9.2391L12.121 11.6502C12.2139 11.7294 12.3242 11.7922 12.4456 11.835C12.567 11.8779 12.6971 11.8999 12.8285 11.8999C12.9599 11.8999 13.09 11.8779 13.2114 11.835C13.3328 11.7922 13.4431 11.7294 13.536 11.6502C13.6289 11.571 13.7026 11.477 13.7529 11.3735C13.8032 11.2701 13.8291 11.1592 13.8291 11.0472C13.8291 10.9352 13.8032 10.8243 13.7529 10.7209C13.7026 10.6174 13.6289 10.5234 13.536 10.4442L11 8.2837V5.22745Z" fill="black"/>
</svg>
