<svg width="34" height="33" viewBox="0 0 34 33" fill="none" xmlns="http://www.w3.org/2000/svg">
<path fill-rule="evenodd" clip-rule="evenodd" d="M0.804648 0.839006C1.32002 0.32379 2.01892 0.034358 2.74765 0.034358C3.47639 0.034358 4.17529 0.32379 4.69066 0.839006L16.4889 12.6372L28.2871 0.839006C28.5406 0.576521 28.8438 0.367154 29.1791 0.223121C29.5144 0.0790885 29.875 0.00327473 30.24 0.000103765C30.6049 -0.0030672 30.9667 0.0664674 31.3045 0.204651C31.6422 0.342835 31.9491 0.546901 32.2071 0.804941C32.4652 1.06298 32.6692 1.36983 32.8074 1.70758C32.9456 2.04532 33.0151 2.40721 33.012 2.77212C33.0088 3.13703 32.933 3.49765 32.789 3.83295C32.6449 4.16825 32.4356 4.4715 32.1731 4.72502L20.3749 16.5232L32.1731 28.3214C32.6737 28.8397 32.9507 29.5339 32.9444 30.2545C32.9382 30.9751 32.6491 31.6644 32.1396 32.1739C31.63 32.6835 30.9408 32.9725 30.2202 32.9788C29.4996 32.985 28.8054 32.708 28.2871 32.2074L16.4889 20.4092L4.69066 32.2074C4.17234 32.708 3.47812 32.985 2.75754 32.9788C2.03696 32.9725 1.34767 32.6835 0.838125 32.1739C0.328579 31.6644 0.0395487 30.9751 0.0332871 30.2545C0.0270254 29.5339 0.304034 28.8397 0.804648 28.3214L12.6028 16.5232L0.804648 4.72502C0.289432 4.20965 0 3.51075 0 2.78201C0 2.05328 0.289432 1.35438 0.804648 0.839006Z" fill="white"/>
</svg>
