<svg width="43" height="43" viewBox="0 0 43 43" fill="none" xmlns="http://www.w3.org/2000/svg">
<path d="M29.3383 5.82264C31.4154 5.82884 33.4057 6.65673 34.8745 8.12551C36.3433 9.59428 37.1712 11.5846 37.1774 13.6617V29.3383C37.1712 31.4154 36.3433 33.4057 34.8745 34.8745C33.4057 36.3433 31.4154 37.1712 29.3383 37.1774H13.6617C11.5846 37.1712 9.59428 36.3433 8.12551 34.8745C6.65673 33.4057 5.82884 31.4154 5.82264 29.3383V13.6617C5.82884 11.5846 6.65673 9.59428 8.12551 8.12551C9.59428 6.65673 11.5846 5.82884 13.6617 5.82264H29.3383ZM29.3383 2.6875H13.6617C7.62578 2.6875 2.6875 7.62578 2.6875 13.6617V29.3383C2.6875 35.3742 7.62578 40.3125 13.6617 40.3125H29.3383C35.3742 40.3125 40.3125 35.3742 40.3125 29.3383V13.6617C40.3125 7.62578 35.3742 2.6875 29.3383 2.6875Z" fill="#F8F8F8"/>
<path d="M31.6898 13.6616C31.2247 13.6616 30.7701 13.5237 30.3834 13.2653C29.9967 13.0069 29.6953 12.6397 29.5173 12.21C29.3393 11.7803 29.2927 11.3075 29.3835 10.8513C29.4742 10.3951 29.6982 9.97613 30.027 9.64725C30.3559 9.31838 30.7749 9.09442 31.2311 9.00368C31.6872 8.91295 32.16 8.95951 32.5897 9.1375C33.0194 9.31548 33.3867 9.61689 33.6451 10.0036C33.9035 10.3903 34.0414 10.845 34.0414 11.3101C34.0421 11.6191 33.9817 11.9251 33.8637 12.2107C33.7458 12.4964 33.5726 12.7559 33.3541 12.9743C33.1356 13.1928 32.8761 13.366 32.5905 13.484C32.3049 13.6019 31.9988 13.6623 31.6898 13.6616ZM21.5 15.2288C22.7403 15.2288 23.9528 15.5966 24.984 16.2856C26.0153 16.9747 26.8191 17.9541 27.2938 19.1C27.7684 20.2459 27.8926 21.5068 27.6506 22.7233C27.4086 23.9398 26.8114 25.0572 25.9344 25.9342C25.0573 26.8113 23.9399 27.4085 22.7234 27.6505C21.507 27.8925 20.246 27.7683 19.1002 27.2936C17.9543 26.819 16.9748 26.0152 16.2858 24.9839C15.5967 23.9526 15.2289 22.7402 15.2289 21.4999C15.2307 19.8372 15.8919 18.2432 17.0676 17.0675C18.2433 15.8918 19.8373 15.2305 21.5 15.2288ZM21.5 12.0936C19.6396 12.0936 17.821 12.6453 16.2742 13.6789C14.7273 14.7124 13.5217 16.1815 12.8098 17.9003C12.0978 19.619 11.9116 21.5103 12.2745 23.335C12.6374 25.1596 13.5333 26.8356 14.8488 28.1511C16.1643 29.4666 17.8403 30.3625 19.6649 30.7254C21.4896 31.0883 23.3809 30.9021 25.0996 30.1901C26.8184 29.4782 28.2874 28.2726 29.321 26.7257C30.3546 25.1789 30.9063 23.3603 30.9063 21.4999C30.9063 19.0052 29.9152 16.6127 28.1512 14.8487C26.3872 13.0846 23.9947 12.0936 21.5 12.0936Z" fill="#F8F8F8"/>
</svg>
