<svg width="117" height="95" viewBox="0 0 117 95" fill="none" xmlns="http://www.w3.org/2000/svg">
<path d="M58.5 5.9375C30.2235 5.9375 7.3125 24.5404 7.3125 47.5C7.3125 70.4596 30.2235 89.0625 58.5 89.0625C86.7765 89.0625 109.688 70.4596 109.688 47.5C109.688 24.5404 86.7765 5.9375 58.5 5.9375ZM39.0762 65.6632C38.7621 66.0982 38.3124 66.4584 37.7725 66.7076C37.2326 66.9567 36.6214 67.0861 36.0004 67.0826C35.3674 67.0871 34.7455 66.9483 34.2042 66.6818C33.8012 66.4922 33.4483 66.2398 33.1658 65.9392C32.8832 65.6386 32.6766 65.2956 32.5577 64.9299C32.4388 64.5643 32.41 64.1832 32.4729 63.8085C32.5359 63.4337 32.6894 63.0728 32.9245 62.7464L36.4185 58.0298C36.5951 57.7863 36.847 57.5846 37.1493 57.4447C37.4515 57.3047 37.7936 57.2314 38.1415 57.2319H38.658C41.1922 57.2319 42.9655 58.4695 43.482 59.6682L39.0762 65.6632ZM68.6575 56.3858L45.7763 56.4062H30.5685C30.0901 56.4079 29.6162 56.3306 29.1756 56.1791C28.735 56.0275 28.3369 55.8049 28.0055 55.5247C27.6741 55.2445 27.4162 54.9125 27.2475 54.549C27.0789 54.1854 27.0029 53.7978 27.0243 53.4097C27.0974 51.8511 28.7724 50.671 30.6805 50.671H41.7041L54.7729 32.608L50.5408 26.754C49.5879 25.4199 50.0106 23.6609 51.6445 22.8223C52.0473 22.6107 52.4987 22.4675 52.9714 22.4013C53.4441 22.335 53.9284 22.347 54.3953 22.4366C54.8621 22.5262 55.3018 22.6916 55.6879 22.9227C56.0741 23.1538 56.3986 23.446 56.6422 23.7815L58.9045 26.9191H58.9296L61.1942 23.7815C61.438 23.4477 61.7621 23.1571 62.1471 22.9272C62.5322 22.6972 62.9703 22.5326 63.4354 22.443C63.9005 22.3535 64.3831 22.341 64.8543 22.4061C65.3255 22.4713 65.7757 22.6128 66.1781 22.8223C67.8029 23.6609 68.2211 25.4199 67.2613 26.7596L63.0292 32.6136L58.9159 38.308L49.9832 50.6766V50.697H63.148C64.7979 50.697 66.866 51.4169 67.7023 52.5747L67.7754 52.6953C68.5136 53.714 68.9317 54.4135 68.9317 55.4321C68.9197 55.7629 68.8289 56.0887 68.6644 56.3914L68.6575 56.3858ZM86.4246 56.4062H80.2296V56.4267L84.7587 62.6814C85.2458 63.3402 85.3949 64.1279 85.174 64.875C84.953 65.6221 84.3797 66.2689 83.5773 66.6763C83.0211 66.9516 82.3823 67.0973 81.7309 67.0975C81.1116 67.0972 80.5028 66.9669 79.9638 66.7192C79.4249 66.4714 78.974 66.1147 78.6551 65.6836L71.9619 56.4322L67.8029 50.6803L62.4373 43.2324C61.6602 42.169 61.2378 40.9594 61.2117 39.723C61.1857 38.4866 61.5569 37.2661 62.2888 36.1816C63.3491 34.662 64.1603 34.2631 64.1603 34.2631L76.0957 50.6543H86.3583C88.2779 50.6543 89.9255 51.8529 90.0146 53.3911C90.0331 53.7822 89.954 54.1722 89.7821 54.5379C89.6103 54.9035 89.3492 55.2372 89.0145 55.5188C88.6798 55.8004 88.2785 56.0242 87.8346 56.1767C87.3907 56.3292 86.9135 56.4073 86.4315 56.4062H86.4246Z" fill="#9747FF"/>
</svg>
